<mxfile host="app.diagrams.net" agent="Mozilla/5.0 (Windows NT 10.0; Win64; x64) AppleWebKit/537.36 (KHTML, like Gecko) Chrome/131.0.0.0 Safari/537.36" version="25.0.3">
  <diagram name="Page-1" id="e7e014a7-5840-1c2e-5031-d8a46d1fe8dd">
    <mxGraphModel dx="1050" dy="530" grid="1" gridSize="10" guides="1" tooltips="1" connect="1" arrows="1" fold="1" page="1" pageScale="1" pageWidth="1169" pageHeight="826" background="none" math="0" shadow="0">
      <root>
        <mxCell id="0" />
        <mxCell id="1" parent="0" />
        <mxCell id="SY3Fk9Id4vYhfdIs6578-45" value="j" style="shape=process;whiteSpace=wrap;html=1;backgroundOutline=1;rotation=90;" vertex="1" parent="1">
          <mxGeometry x="475" y="135" width="210" height="200" as="geometry" />
        </mxCell>
        <mxCell id="SY3Fk9Id4vYhfdIs6578-46" value="livre" style="text;html=1;align=center;verticalAlign=middle;whiteSpace=wrap;rounded=0;" vertex="1" parent="1">
          <mxGeometry x="550" y="128" width="60" height="30" as="geometry" />
        </mxCell>
        <mxCell id="SY3Fk9Id4vYhfdIs6578-47" value="+ titre : &lt;span class=&quot;hljs-built_in&quot;&gt;string&lt;/span&gt;&lt;div&gt;# auteur&amp;nbsp;: string&lt;/div&gt;&lt;div&gt;- prix :&amp;nbsp;double&lt;/div&gt;" style="text;html=1;align=center;verticalAlign=middle;whiteSpace=wrap;rounded=0;" vertex="1" parent="1">
          <mxGeometry x="520" y="205" width="110" height="60" as="geometry" />
        </mxCell>
        <mxCell id="SY3Fk9Id4vYhfdIs6578-49" value="+ afficherdetails() : void" style="text;html=1;align=center;verticalAlign=middle;whiteSpace=wrap;rounded=0;" vertex="1" parent="1">
          <mxGeometry x="500" y="306" width="135" height="46" as="geometry" />
        </mxCell>
        <mxCell id="SY3Fk9Id4vYhfdIs6578-66" style="edgeStyle=orthogonalEdgeStyle;rounded=0;orthogonalLoop=1;jettySize=auto;html=1;entryX=0.75;entryY=1;entryDx=0;entryDy=0;" edge="1" parent="1" source="SY3Fk9Id4vYhfdIs6578-58" target="SY3Fk9Id4vYhfdIs6578-45">
          <mxGeometry relative="1" as="geometry" />
        </mxCell>
        <mxCell id="SY3Fk9Id4vYhfdIs6578-58" value="" style="shape=process;whiteSpace=wrap;html=1;backgroundOutline=1;rotation=90;" vertex="1" parent="1">
          <mxGeometry x="290" y="290" width="120" height="120" as="geometry" />
        </mxCell>
        <mxCell id="SY3Fk9Id4vYhfdIs6578-59" value="" style="shape=process;whiteSpace=wrap;html=1;backgroundOutline=1;rotation=90;" vertex="1" parent="1">
          <mxGeometry x="460" y="451.75" width="116.5" height="133" as="geometry" />
        </mxCell>
        <mxCell id="SY3Fk9Id4vYhfdIs6578-61" value="&lt;font style=&quot;font-size: 9px;&quot;&gt;livrePapier&lt;/font&gt;" style="text;html=1;align=center;verticalAlign=middle;whiteSpace=wrap;rounded=0;" vertex="1" parent="1">
          <mxGeometry x="486.75" y="450" width="60" height="30" as="geometry" />
        </mxCell>
        <mxCell id="SY3Fk9Id4vYhfdIs6578-62" value="# stock&amp;nbsp; : int" style="text;html=1;align=center;verticalAlign=middle;whiteSpace=wrap;rounded=0;" vertex="1" parent="1">
          <mxGeometry x="481.75" y="503.25" width="100" height="30" as="geometry" />
        </mxCell>
        <mxCell id="SY3Fk9Id4vYhfdIs6578-63" value="&lt;font style=&quot;font-size: 9px;&quot;&gt; LivreElectron.&lt;/font&gt;" style="text;html=1;align=center;verticalAlign=middle;whiteSpace=wrap;rounded=0;" vertex="1" parent="1">
          <mxGeometry x="320" y="280" width="60" height="30" as="geometry" />
        </mxCell>
        <mxCell id="SY3Fk9Id4vYhfdIs6578-64" value="- tailleFichier&amp;nbsp; : &lt;span class=&quot;hljs-type&quot;&gt;double&lt;/span&gt;" style="text;html=1;align=center;verticalAlign=middle;whiteSpace=wrap;rounded=0;" vertex="1" parent="1">
          <mxGeometry x="290" y="335" width="120" height="30" as="geometry" />
        </mxCell>
        <mxCell id="SY3Fk9Id4vYhfdIs6578-70" style="edgeStyle=orthogonalEdgeStyle;rounded=0;orthogonalLoop=1;jettySize=auto;html=1;exitX=0.5;exitY=0;exitDx=0;exitDy=0;entryX=1;entryY=0.85;entryDx=0;entryDy=0;entryPerimeter=0;" edge="1" parent="1" source="SY3Fk9Id4vYhfdIs6578-61" target="SY3Fk9Id4vYhfdIs6578-45">
          <mxGeometry relative="1" as="geometry" />
        </mxCell>
      </root>
    </mxGraphModel>
  </diagram>
</mxfile>
